<svg width="512" height="408" viewBox="0 0 512 408" fill="none" xmlns="http://www.w3.org/2000/svg">
<path d="M506.759 190.35L388.359 64.9104C381.082 57.1924 368.935 56.8404 361.217 64.1234C353.511 71.4004 353.153 83.5534 360.436 91.2654L466.401 203.521L360.436 315.79C353.153 323.502 353.511 335.649 361.217 342.932C364.929 346.433 369.671 348.167 374.395 348.167C379.496 348.167 384.59 346.145 388.36 342.157L506.76 216.711C513.741 209.307 513.741 197.748 506.759 190.35Z" fill="white"/>
<path d="M151.565 315.784L45.6075 203.521L151.565 91.2594C158.842 83.5474 158.491 71.3934 150.779 64.1174C143.073 56.8404 130.912 57.1924 123.636 64.9044L5.2365 190.344C-1.7455 197.742 -1.7455 209.307 5.2365 216.706L123.642 342.152C127.418 346.152 132.506 348.168 137.607 348.168C142.33 348.168 147.074 346.427 150.779 342.926C158.498 335.649 158.842 323.496 151.565 315.784Z" fill="white"/>
<path d="M287.061 0.219379C276.584 -1.36762 266.778 5.82538 265.178 16.3024L208.859 384.942C207.259 395.425 214.459 405.224 224.942 406.824C225.928 406.971 226.9 407.042 227.867 407.042C237.192 407.042 245.371 400.239 246.824 390.741L303.144 22.1014C304.744 11.6174 297.544 1.81938 287.061 0.219379Z" fill="white"/>
</svg>
