<svg width="137" height="137" fill="none" xmlns="http://www.w3.org/2000/svg"><path d="M117.734 109.551v4.816c0 1.139-.453 2.233-1.267 3.03-2.969 2.914-6.202 5.558-9.661 7.895-.659.447-1.519.471-2.195.05-10.4842-6.518-22.8576-10.284-36.1111-10.284-13.1322 0-25.4 3.698-35.823 10.107-.854.524-1.9379.501-2.7657-.065-3.3802-2.308-6.541-4.913-9.4488-7.773-1.1006-1.083-1.732-2.555-1.732-4.1v-4.257c0-5.504-4.462-9.9662-9.96618-9.9662-.9961 0-1.90231-.5749-2.32563-1.4758C2.3089 88.7146 0 78.877 0 68.4999 0 30.6952 30.6262.0429 68.4215.00004 106.242-.0428 137.091 30.8467 137 68.6682c-.025 10.3331-2.339 20.1269-6.461 28.9037-.41.8748-1.292 1.4319-2.257 1.4319-5.825 0-10.548 4.7222-10.548 10.5472z" fill="#fff"/><path d="M79.2032 72.2462c0 5.9108-4.7924 10.7031-10.7032 10.7031-5.9107 0-10.7031-4.7923-10.7031-10.7031 0-5.9107 4.7924-10.7031 10.7031-10.7031 5.9108 0 10.7032 4.7924 10.7032 10.7031z" fill="#2253DC"/><path d="M93.6524 5.35171c0 2.9559-2.3957 5.35159-5.3516 5.35159-1.7633 0-3.3228-.85712-4.298-2.17202C75.7403 10.4796 69.5704 17.909 69.5704 26.7579h-5.3516c0-11.6051 8.2521-21.31944 19.1966-23.5834.8341-1.86886 2.7061-3.17435 4.8854-3.17435 2.9559 0 5.3516 2.39566 5.3516 5.35156z" fill="#2962FF"/><path d="M89 2c1.1047 0 2 .89531 2 2s-.8953 2-2 2-2-.89531-2-2 .8953-2 2-2z" fill="#fff"/><path d="M93.6523 73.6729H42.8125c-14.7774 0-26.7577-11.9793-26.7577-26.7578v-2.6757c0-14.7774 11.9803-26.7578 26.7577-26.7578h50.8398c14.7777 0 26.7577 11.9804 26.7577 26.7578v2.6757c0 14.7785-11.98 26.7578-26.7577 26.7578zm36.9227 23.8186c-3.498 7.4775-8.306 14.2175-14.13 19.9265l-9.069-9.068c-.095-.095-.186-.193-.277-.29v12.35c0 1.71-.162 3.381-.468 5.002C95.7313 132.729 82.6147 137 68.5 137c-14.3468 0-27.6608-4.413-38.665-11.952-.2634-1.507-.4013-3.056-.4013-4.638v-11.869l-8.8782 8.877c-5.824-5.709-10.63202-12.449-14.13039-19.9265l6.16999-6.1699c2.4113-2.4103 5.686-3.4284 8.828-3.0573.3041-5.639 4.9721-10.1178 10.6863-10.1178 4.3367 0 8.0671 2.5796 9.7489 6.287 4.1443-2.634 9.06-4.16 14.3331-4.16h24.151c6.1815 0 11.8727 2.0978 16.4027 5.6181 1.2846-4.4725 5.4019-7.7451 10.2859-7.7451 5.702 0 10.36 4.4579 10.683 10.0791 2.44.1996 4.824 1.2292 6.691 3.096l6.17 6.1699z" fill="#0039CB"/><path d="M53.2481 73.6729c-14.7785 0-26.7578-11.9793-26.7578-26.7578v-2.6757c0-14.7774 11.9793-26.7578 26.7578-26.7578h40.4042c14.7787 0 26.7577 11.9804 26.7577 26.7578v2.6757c0 14.7785-11.979 26.7578-26.7577 26.7578H53.2481zM32.1095 99.5527c-3.9291 0-7.3626-2.1197-9.2242-5.2752-1.689.4828-3.283 1.3891-4.6136 2.7207l-7.8423 7.8418c2.8764 4.586 6.2797 8.807 10.1261 12.578l9.0684-9.068c2.4072-2.407 3.4273-5.675 3.0615-8.814-.1913.0104-.3826.0167-.5759.0167zm92.2955-8.2311c-1.867-1.8668-4.251-2.8985-6.691-3.0981.013.207.02.415.02.6261 0 4.6502-2.967 8.6074-7.111 10.0833.52 1.3641 1.33 2.6421 2.43 3.7411l8.792 8.793c3.442-4.267 6.381-8.955 8.73-13.9755l-6.17-6.1699zm-28.0769-2.472c0-1.0724.1599-2.1072.4526-3.0834-4.5028-3.4451-10.1324-5.4927-16.2397-5.4927H66.8946c-14.7785 0-26.7578 11.9794-26.7578 26.7575v13.379c0 4.152.9459 8.082 2.6329 11.588C50.7145 135.221 59.3982 137 68.5 137c14.213 0 27.4152-4.329 38.359-11.74.288-1.573.44-3.194.44-4.85v-13.379c0-2.608-.375-5.129-1.071-7.5117-5.535-.4108-9.8999-5.0297-9.8999-10.6697z" fill="#2962FF"/><path d="M91.5117 52.2667H45.4883c-6.6497 0-12.041-5.3902-12.041-12.041 0-6.6497 5.3913-12.041 12.041-12.041h46.0234c6.6497 0 12.0413 5.3913 12.0413 12.041 0 6.6508-5.3916 12.041-12.0413 12.041z" fill="#000009"/><path d="M91.5118 52.2667h-39.334c-6.6497 0-12.041-5.3902-12.041-12.041 0-6.6497 5.3913-12.041 12.041-12.041h39.334c6.6497 0 12.0412 5.3913 12.0412 12.041 0 6.6508-5.3915 12.041-12.0412 12.041z" fill="#172231"/><path d="M52.1778 33.5363c-3.6949 0-6.6895 2.9956-6.6895 6.6894 0 3.6949 2.9946 6.6894 6.6895 6.6894 3.6949 0 6.6894-2.9945 6.6894-6.6894 0-3.6938-2.9945-6.6894-6.6894-6.6894zm0 9.3652c-1.478 0-2.6758-1.1979-2.6758-2.6758 0-1.4779 1.1978-2.6758 2.6758-2.6758 1.4779 0 2.6758 1.1979 2.6758 2.6758 0 1.4779-1.1979 2.6758-2.6758 2.6758zm32.1093-9.3652c-3.6949 0-6.6894 2.9956-6.6894 6.6894 0 3.6949 2.9945 6.6894 6.6894 6.6894s6.6895-2.9945 6.6895-6.6894c0-3.6938-2.9946-6.6894-6.6895-6.6894zm0 9.3652c-1.4779 0-2.6758-1.1979-2.6758-2.6758 0-1.4779 1.1979-2.6758 2.6758-2.6758 1.478 0 2.6758 1.1979 2.6758 2.6758 0 1.4779-1.1978 2.6758-2.6758 2.6758z" fill="#fff"/><path d="M37.461 88.8496c0 2.9548-2.3956 5.3515-5.3515 5.3515-2.9559 0-5.3516-2.3967-5.3516-5.3515 0-2.9559 2.3957-5.3516 5.3516-5.3516s5.3515 2.3957 5.3515 5.3516zm69.57-5.3516c-2.956 0-5.351 2.3957-5.351 5.3516 0 2.9548 2.395 5.3515 5.351 5.3515s5.352-2.3967 5.352-5.3515c0-2.9559-2.396-5.3516-5.352-5.3516z" fill="#2962FF"/><path d="M37.461 88.8496c0 2.2451-1.3839 4.1642-3.3447 4.9585-.9658-.3919-1.7905-1.0577-2.38-1.9002-.2017-.2895.0105-.6742.3648-.6731h.0083c1.3902 0 2.5034-1.1895 2.3769-2.6058-.0899-.9971-.8226-1.85-1.7936-2.0935-.2038-.0513-.4035-.0732-.5979-.0722-.3512.0021-.5592-.3846-.3585-.6721.5895-.8434 1.4142-1.5093 2.381-1.9012 1.9598.7944 3.3437 2.7134 3.3437 4.9596zm71.577-4.9596c-.967.3919-1.791 1.0578-2.38 1.9012-.202.2875.007.6742.358.6721.194-.001.395.022.598.0722.971.2435 1.704 1.0964 1.793 2.0935.128 1.4163-.986 2.6058-2.376 2.6058h-.009c-.353-.0011-.567.3836-.364.6731.589.8435 1.413 1.5093 2.38 1.9002 1.96-.7943 3.345-2.7134 3.345-4.9585 0-2.2452-1.384-4.1652-3.345-4.9596z" fill="#fff"/><path d="M87.0273 88.3008c1.478 0 2.6758 1.1979 2.6758 2.6758 0 1.478-1.1978 2.6758-2.6758 2.6758-1.4779 0-2.6757-1.1978-2.6757-2.6758 0-1.4779 1.1978-2.6758 2.6757-2.6758zM78.6758 88.3008c1.4779 0 2.6758 1.1979 2.6758 2.6758 0 1.478-1.1979 2.6758-2.6758 2.6758-1.478 0-2.6758-1.1978-2.6758-2.6758 0-1.4779 1.1978-2.6758 2.6758-2.6758zM75.6548 58.7144c.5523 0 1.0071.4498.932.9969a7.33902 7.33902 0 01-2.0816 4.1927c-1.3764 1.3764-3.2431 2.1496-5.1896 2.1496-1.9465 0-3.8133-.7732-5.1897-2.1496a7.33902 7.33902 0 01-2.0816-4.1927c-.0751-.5471.3797-.9969.932-.9969h12.6785z" fill="#172231"/></svg>