<svg width="20" height="20" fill="none" xmlns="http://www.w3.org/2000/svg"><path d="M11.9141 10c0 1.0571-.857 1.9141-1.9141 1.9141-1.05713 0-1.91406-.857-1.91406-1.9141 0-1.05713.85693-1.91406 1.91406-1.91406 1.0571 0 1.9141.85693 1.9141 1.91406z" fill="#fff"/><path d="M14.4764 6.61346a1.77938 1.77938 0 00-.4295-.66024 1.778 1.778 0 00-.6602-.42954c-.2024-.07858-.5063-.17212-1.0662-.1976-.6056-.02762-.7872-.03357-2.3204-.03357-1.53333 0-1.71491.0058-2.32038.03342-.55985.02563-.86395.11917-1.06613.19775a1.77665 1.77665 0 00-.66025.42954 1.78004 1.78004 0 00-.42969.66024c-.07858.20234-.17212.50644-.1976 1.06629-.02762.60547-.03357.78705-.03357 2.32045 0 1.5332.00595 1.7147.03357 2.3204.02548.5598.11902.8638.1976 1.0661.09216.2495.2388.475.42954.6602a1.7771 1.7771 0 00.66024.4296c.20234.0787.50644.1722 1.06629.1977.60547.0276.78689.0334 2.32025.0334 1.53353 0 1.71513-.0058 2.32043-.0334.5598-.0255.8639-.119 1.0663-.1977.5008-.1932.8966-.589 1.0897-1.0898.0786-.2023.1722-.5063.1978-1.0661.0276-.6057.0334-.7872.0334-2.3204 0-1.5334-.0058-1.71498-.0334-2.32045-.0255-.55985-.119-.86395-.1978-1.06629zm-4.4763 6.33514c-1.62855 0-2.94874-1.32-2.94874-2.9486 0-1.62857 1.32019-2.94861 2.94874-2.94861 1.6284 0 2.9486 1.32004 2.9486 2.94861 0 1.6286-1.3202 2.9486-2.9486 2.9486zm3.0652-5.3247c-.3805 0-.6891-.30853-.6891-.68909 0-.38055.3086-.68908.6891-.68908.3806 0 .6891.30853.6891.68908-.0002.38056-.3085.68909-.6891.68909z" fill="#fff"/><path d="M10 0C4.478 0 0 4.478 0 10s4.478 10 10 10 10-4.478 10-10S15.522 0 10 0zm5.7076 12.3674c-.0278.6113-.125 1.0286-.2669 1.3939a2.9363 2.9363 0 01-1.6794 1.6794c-.3652.1419-.7826.2389-1.3937.2669-.6124.0279-.808.0346-2.3674.0346-1.55965 0-1.75511-.0067-2.3676-.0346-.61112-.028-1.0286-.125-1.39374-.2669a2.81343 2.81343 0 01-1.01715-.6624 2.81451 2.81451 0 01-.66223-1.017c-.14191-.3652-.23911-.7826-.26688-1.3937-.02823-.6125-.03479-.8082-.03479-2.3676 0-1.55945.00656-1.75507.03464-2.3674.02777-.61127.12482-1.0286.26672-1.39389a2.813 2.813 0 01.66254-1.017 2.81246 2.81246 0 011.017-.66238c.36529-.14191.78262-.23896 1.39389-.26688.61233-.02792.80795-.03464 2.3674-.03464 1.5594 0 1.7551.00672 2.3674.03479.6113.02777 1.0286.12482 1.3939.26657.3831.1442.7303.37033 1.0171.66254.2921.28687.5182.63385.6623 1.017.142.36529.2391.78262.267 1.39389.0279.61233.0345.80795.0345 2.3674 0 1.5594-.0066 1.7551-.0346 2.3674z" fill="#fff"/></svg>