<svg width="173" height="169" viewBox="0 0 173 169" fill="none" xmlns="http://www.w3.org/2000/svg">
<path d="M146.914 137.671C145.198 139.475 145.198 139.475 143.482 141.278C148.468 128.842 151.738 118.21 146.188 106.058C142.272 88.5903 122.834 83.8431 105.273 84.3173C98.2485 84.507 89.5083 86.5004 80.7682 88.4938C72.0281 90.4872 58.06 94.3791 52.59 85.74C50.7128 80.5186 52.3479 75.2024 52.2672 71.6898C53.9023 66.3736 53.8216 62.861 55.4566 57.5448C57.011 48.716 58.5654 39.8872 54.8918 32.957C51.2182 26.0267 42.3974 24.5076 31.8608 24.7921C24.8364 24.9818 14.3805 28.7789 7.51753 35.9936L9.31397 37.7025C16.2577 34.0003 23.2014 30.298 33.7379 30.0135C42.4781 28.0201 53.0953 31.2481 51.6217 43.5894C51.7831 50.6145 50.2287 59.4433 46.8779 66.5633C47.0393 73.5884 45.4849 82.4172 49.1585 89.3474C56.5056 103.208 80.9296 95.5189 91.3855 91.7218C105.354 87.8299 128.142 85.4571 139.083 102.735C144.553 111.374 142.998 120.203 141.444 129.032C139.809 134.348 138.174 139.664 138.335 146.69C136.539 144.981 138.254 143.177 136.458 141.468C134.661 139.759 131.149 139.854 131.23 143.367C133.107 148.588 133.268 155.613 133.349 159.126C133.43 162.638 138.739 164.252 138.658 160.74C145.521 153.525 148.872 146.405 154.019 140.994C153.938 137.481 150.345 134.064 146.914 137.671Z" fill="#231F20"/>
</svg>
