<svg width="173" height="57" fill="none" xmlns="http://www.w3.org/2000/svg"><path d="M11.9243 24.4855c5.1585 0 9.8619-2.5489 9.8619-7.9805 0-1.2745-.2731-2.4882-1.3655-3.5199h-7.6771l-.2124.6675c2.0938 1.0014 2.6096 2.9434 2.6096 4.8551 0 3.0648-1.062 4.7034-2.9737 4.7034-3.18615 0-4.55164-3.4289-4.55164-9.8923 0-6.12948 1.24411-9.80113 4.24814-9.80113 1.5173 0 2.6703.91033 2.6703 3.36821 0 .69791-.1213 1.51721-.3641 2.45788l.8496.42482 6.4634-1.12274c-1.1228-4.58197-5.0979-6.43297-9.7709-6.43297C4.73276 2.21287.666644 6.58244.666644 13.1975c0 6.7667 4.187496 11.288 11.257656 11.288zM25.071 24c2.0634-.1517 4.1268-.1517 6.2205 0-.0303-3.0951-.0607-6.1902 0-9.1336 0-2.731.7283-4.8247 2.2151-4.8247 1.1228 0 1.5779 1.7296.8497 4.5516l.3945.1214 5.2798-1.3959c.0607-.4855.1214-.9103.1214-1.3351 0-2.91304-1.851-4.30887-4.0964-4.30887-3.1255 0-4.7337 1.85099-5.4923 4.36957l-2.9131-3.91441h-2.6096c.1821 5.37091.1821 10.49911.0304 15.87001zM47.2281 6.46106c1.851 0 2.8524-1.12274 2.8524-2.42754 0-1.39583-1.0014-2.48822-2.8524-2.48822-1.851 0-2.8523 1.09239-2.8523 2.48822 0 1.3048 1.0013 2.42754 2.8523 2.42754zm6.9792 0c1.851 0 2.8524-1.12274 2.8524-2.42754 0-1.39583-1.0014-2.48822-2.8524-2.48822-1.851 0-2.8523 1.09239-2.8523 2.48822 0 1.3048 1.0013 2.42754 2.8523 2.42754zm4.7337 1.66893c-2.0938.15172-4.1572.15172-6.2509 0 .091 2.97371.091 3.85371.091 7.98051 0 3.9144-.971 5.8868-2.5792 5.9171-1.2138.0304-1.6386-1.0924-1.669-4.2482-.0606-4.3695-.091-3.9447-.0606-9.64941-2.0635.15172-4.1269.15172-6.1903 0 .0607 3.09511.0304 5.85641.0607 9.74051.0304 4.9764 2.3972 6.5543 5.462 6.5543 2.9434 0 4.9461-1.7903 5.644-4.4606L56.3921 24h2.5489c-.1821-5.3709-.1517-10.4991 0-15.87001zM73.5617 18.5684l-.6069.2427c.091.4552.1214.8193.1214 1.4262 0 2.1241-.8193 3.1862-2.0331 3.1862-1.942 0-2.7006-2.0331-2.7006-7.1916v-.0607h9.8011l.7283-.3338c.0607-4.7944-2.4275-8.16257-8.1019-8.16257-5.4923 0-8.8301 3.30747-8.8301 8.37497 0 5.0372 3.2771 8.4054 9.0122 8.4054 4.0661 0 7.2826-1.6993 7.9502-5.0979l-5.3406-.7889zm-2.6703-9.89221c1.3958 0 1.9724 1.33511 1.9724 3.67161 0 .9104-.0607 1.851-.2124 2.4883h-4.2786c.1517-4.6731 1.0924-6.15991 2.5186-6.15991zM96.9506 24.0303c.2731-1.4868.2731-3.2468 0-4.7336-2.6399 1.3351-6.1902 2.7916-9.437 3.5806 2.4579-4.0055 6.3116-9.8316 9.3157-14.11008v-.63723c-5.1585.12138-9.8922.09103-15.1114-.03035-.3945 1.21377-.6069 3.03446-.3945 4.52126 2.7917-1.2137 5.8868-2.3668 8.8605-3.45921-2.4882 4.27851-6.433 10.13501-9.3157 14.23141V24c5.2496-.1214 10.8936-.1214 16.0824.0303zm6.4584-17.81199c2.063 0 3.186-1.18343 3.186-2.60961 0-1.48686-1.123-2.670283-3.186-2.670283-2.094 0-3.217 1.183423-3.217 2.670283 0 1.42618 1.092 2.60961 3.217 2.60961zM100.162 24c2.093-.1517 4.157-.1517 6.22 0-.121-5.3102-.121-10.5598 0-15.87001-2.063.15172-4.127.15172-6.22 0 .151 5.31021.151 10.55981 0 15.87001zm13.192-5.5226c-1.821 0-3.095 1.2744-3.095 3.0344 0 1.9117 1.183 3.0951 3.125 3.0951.122 0 .243 0 .364-.0304-.576 1.2138-1.699 2.3062-2.7 2.9738l.819.971c2.64-1.6993 4.43-4.1875 4.43-6.7364 0-2.2152-1.335-3.3075-2.943-3.3075zm16.309-12.25909c2.064 0 3.186-1.18343 3.186-2.60961 0-1.48686-1.122-2.670283-3.186-2.670283-2.093 0-3.216 1.183423-3.216 2.670283 0 1.42618 1.092 2.60961 3.216 2.60961zM126.417 24c2.093-.1517 4.157-.1517 6.22 0-.121-5.3102-.121-10.5598 0-15.87001-2.063.15172-4.127.15172-6.22 0 .151 5.31021.151 10.55981 0 15.87001zm18.411.4248c4.218 0 7.556-1.942 8.193-5.553l-6.008-1.062-.607.1821c.303.9103.425 1.6385.425 2.4275 0 1.942-.911 2.9737-1.942 2.9737-1.669 0-2.671-1.942-2.671-7.5557 0-5.2192.941-7.16121 2.731-7.16121 1.093 0 1.791.81929 1.791 2.45791 0 .7282-.122 1.5475-.425 2.6399l.698.1821 5.795-1.0621c-.576-3.00405-3.429-5.21917-8.041-5.21917-5.614 0-8.951 3.30747-8.951 8.31427s3.307 8.4357 9.012 8.4357zm28.066-9.6494c.121-5.24958-2.397-7.10057-5.462-7.10057-2.792 0-5.128 1.33514-5.917 4.43027.121-3.64132.243-7.9502.486-10.37773-1.943-.30345-4.158-.30345-6.069 0 .333 6.15987.151 15.80933 0 22.27263 2.063-.1517 4.126-.1517 6.22 0-.03-3.1861-.06-6.1295-.03-9.0729.061-3.0041 1.001-4.8854 2.64-4.8854 1.396 0 1.881 1.4565 1.912 3.7627.091 3.3985.121 6.7971.03 10.1956 2.033-.1517 4.187-.1517 6.22 0-.06-3.0951-.091-6.1599-.03-9.2246zM15.6334 56.4248c4.1572 0 6.7971-3.3985 6.7971-8.5267 0-5.2192-2.9434-8.2233-6.5847-8.2233-2.6702 0-4.3088 1.5476-5.1888 3.9448.0607-3.3075.2124-7.5557.3034-9.8922-1.942-.3035-4.24816-.3035-6.19018 0C5.01297 39.8872 5.104 49.5063 4.89159 56H7.4405l2.8524-3.5199c.7282 2.4275 2.5792 3.9447 5.3405 3.9447zm-1.9116-2.1544c-1.7297 0-2.6703-2.3365-2.64-6.1599.0304-3.793.971-5.8868 2.64-5.8868 1.6992 0 2.4275 2.3365 2.4275 5.8261 0 4.1268-.789 6.2206-2.4275 6.2206zm15.0708-16.0521c2.0634 0 3.1862-1.1834 3.1862-2.6096 0-1.4869-1.1228-2.6703-3.1862-2.6703-2.0937 0-3.2165 1.1834-3.2165 2.6703 0 1.4262 1.0924 2.6096 3.2165 2.6096zM25.5458 56c2.0937-.1517 4.1571-.1517 6.2205 0-.1213-5.3102-.1213-10.5598 0-15.87-2.0634.1517-4.1268.1517-6.2205 0 .1517 5.3102.1517 10.5598 0 15.87zm27.3629-9.5281c-.0607-5.0068-2.3972-6.7971-5.7047-6.7971-3.0648 0-5.0372 1.6386-5.7654 4.5213L38.5255 40.13h-2.5792c.1517 5.3709.1213 10.4991 0 15.87 2.0937-.1517 4.1571-.1517 6.2509 0-.0911-2.9737-.0607-6.0081-.0607-7.7074 0-4.2482.9103-6.1902 2.5489-6.2509 1.6689-.0304 1.9724 1.7599 2.033 4.6426.0304 4.0662.1214 6.1902.0304 9.3157 2.0634-.1517 4.1571-.1517 6.2205 0-.0606-3.0648 0-5.8261-.0606-9.5281zm18.7109-12.1073c-2.7613 0-5.2495.3338-8.2232.7586.1517 7.495.1517 13.7763 0 20.8768 2.1241.3034 4.2785.3034 6.4329 0-.0607-2.1544-.091-4.4606-.091-6.8274.7889.0606 1.5476.091 2.1544.091 5.371 0 10.5902-2.64 10.5902-8.0412 0-6.524-7.8895-6.8578-10.8633-6.8578zm-.4248 13.5638c-.4248 0-.9406-.0303-1.4868-.1213 0-3.9448.0303-8.0412.1213-12.0163.5766-.0607 1.1531-.1214 1.5779-.1214 2.3972 0 4.1875 1.3048 4.1875 5.8564 0 4.8551-2.0027 6.4026-4.3999 6.4026zm21.3194-8.2536c-4.2785 0-7.404 1.9117-8.0108 4.673l5.7654 1.4262.6068-.3945c-.4551-.4551-.6372-1.1227-.6372-1.9116 0-1.3049.5765-2.8221 2.0331-2.8221 1.9723 0 2.2758 2.8827 2.3061 5.7958-5.8564.2124-10.6204 2.1241-10.6204 5.9778 0 2.3668 1.7903 4.0358 5.0068 4.0358 3.8233 0 5.5529-2.822 6.0384-4.8855L97.7031 56h2.7919v-9.3764c0-4.6426-3.2774-6.9488-7.9808-6.9488zm-.88 14.2315c-1.0317 0-1.5779-.7587-1.5779-2.2152 0-2.0937 1.1531-3.9447 4.5213-4.2482-.091 3.9144-1.1834 6.4937-2.9434 6.4634zM104.221 56c2.063-.1517 4.126-.1517 6.22 0-.03-3.0951-.06-6.1902 0-9.1336 0-2.731.728-4.8247 2.215-4.8247 1.123 0 1.578 1.7296.85 4.5516l.394.1214 5.28-1.3959c.061-.4855.122-.9103.122-1.3351 0-2.913-1.851-4.3089-4.097-4.3089-3.125 0-4.733 1.851-5.492 4.3696L106.8 40.13h-2.61c.182 5.3709.182 10.4991.031 15.87zm25.373.4248c5.553 0 8.952-3.3985 8.952-8.466 0-4.9765-3.399-8.284-8.952-8.284s-8.921 3.3075-8.921 8.284c0 5.0675 3.368 8.466 8.921 8.466zm.031-1.062c-1.609 0-2.58-1.76-2.58-7.404 0-5.4923.971-7.2523 2.549-7.2523 1.639 0 2.519 1.7296 2.519 7.1309 0 5.7351-.91 7.5254-2.488 7.5254zm17.15 1.062c3.004 0 4.825-1.5475 4.825-4.3999-.516 0-1.001-.1214-1.456-.2731.091.2731.121.5159.121.789 0 1.062-.455 1.9116-1.305 1.9116-1.123 0-1.365-1.153-1.365-3.2771 0-5.4923.091-12.6536.212-17.4479-2.063-.3338-4.187-.3338-6.221 0 .122 4.7943.091 11.9252.061 17.4175-.03 4.3999 2.852 5.2799 5.128 5.2799zm14.784-16.75c-4.278 0-7.404 1.9117-8.011 4.673l5.766 1.4262.607-.3945c-.456-.4551-.638-1.1227-.638-1.9116 0-1.3049.577-2.8221 2.033-2.8221 1.973 0 2.276 2.8827 2.307 5.7958-5.857.2124-10.621 2.1241-10.621 5.9778 0 2.3668 1.79 4.0358 5.007 4.0358 3.823 0 5.553-2.822 6.038-4.8855L166.748 56h2.792v-9.3764c0-4.6426-3.278-6.9488-7.981-6.9488zm-.88 14.2315c-1.032 0-1.578-.7587-1.578-2.2152 0-2.0937 1.153-3.9447 4.522-4.2482-.092 3.9144-1.184 6.4937-2.944 6.4634z" fill="#fff"/></svg>