<svg width="14" height="14" viewBox="0 0 14 14" fill="none" xmlns="http://www.w3.org/2000/svg">
<g opacity="0.9">
<path d="M13.5269 2.75752L9.28494 6.99992L13.5269 11.2421C14.1579 11.8733 14.1579 12.8958 13.5269 13.527C13.2116 13.8423 12.7983 14 12.3852 14C11.9713 14 11.558 13.8425 11.243 13.527L7.00008 9.28433L2.75752 13.527C2.4423 13.8422 2.02893 14 1.61544 14C1.20206 14 0.788973 13.8425 0.473468 13.527C-0.157501 12.896 -0.157501 11.8735 0.473468 11.2421L4.7153 6.99988L0.473227 2.75752C-0.157742 2.12655 -0.157742 1.10383 0.473227 0.472865C1.10408 -0.157622 2.12619 -0.157622 2.75728 0.472865L7.00004 4.71526L11.2425 0.472865C11.8737 -0.157622 12.8959 -0.157622 13.5266 0.472865C14.1579 1.10383 14.1579 2.12655 13.5269 2.75752Z" fill="#172231"/>
</g>
</svg>
