<svg width="202" height="64" fill="none" xmlns="http://www.w3.org/2000/svg"><path d="M.15 24c2.155.273 4.31.273 6.464 0-.152-7.07-.152-14.17 0-21.24a25.596 25.596 0 00-6.463 0C.302 9.83.302 16.93.15 24zm19.025.425c4.218 0 7.556-1.942 8.193-5.553L21.36 17.81l-.607.182c.303.91.425 1.638.425 2.427 0 1.942-.91 2.974-1.942 2.974-1.67 0-2.67-1.942-2.67-7.556 0-5.219.94-7.16 2.73-7.16 1.093 0 1.79.818 1.79 2.457 0 .728-.12 1.548-.424 2.64l.698.182 5.796-1.062c-.577-3.004-3.43-5.22-8.042-5.22-5.613 0-8.951 3.308-8.951 8.315s3.307 8.436 9.012 8.436zm28.066-9.65c.122-5.25-2.397-7.1-5.462-7.1-2.791 0-5.128 1.335-5.917 4.43.122-3.641.243-7.95.486-10.378a20.342 20.342 0 00-6.07 0c.335 6.16.153 15.81 0 22.273a42.57 42.57 0 016.221 0c-.03-3.186-.06-6.13-.03-9.073.06-3.004 1.002-4.885 2.64-4.885 1.396 0 1.881 1.456 1.912 3.762.09 3.399.121 6.798.03 10.196a42.57 42.57 0 016.22 0c-.06-3.095-.09-6.16-.03-9.225zm20.834 9.65c4.157 0 6.797-3.399 6.797-8.527 0-5.22-2.943-8.223-6.585-8.223-2.67 0-4.309 1.547-5.189 3.945.061-3.308.213-7.556.304-9.893a21.16 21.16 0 00-6.19 0c.242 6.16.333 15.78.121 22.273h2.549l2.852-3.52c.729 2.428 2.58 3.945 5.341 3.945zm-1.912-2.155c-1.73 0-2.67-2.336-2.64-6.16.03-3.792.971-5.886 2.64-5.886 1.7 0 2.428 2.336 2.428 5.826 0 4.127-.79 6.22-2.428 6.22zM81.234 6.218c2.064 0 3.186-1.183 3.186-2.61 0-1.486-1.123-2.67-3.186-2.67-2.094 0-3.216 1.184-3.216 2.67 0 1.427 1.092 2.61 3.216 2.61zM77.987 24a42.57 42.57 0 016.22 0c-.12-5.31-.12-10.56 0-15.87a42.564 42.564 0 01-6.22 0c.152 5.31.152 10.56 0 15.87zm27.363-9.528c-.061-5.007-2.397-6.797-5.704-6.797-3.065 0-5.038 1.638-5.766 4.521L90.967 8.13h-2.58c.153 5.37.122 10.5 0 15.87a42.986 42.986 0 016.252 0c-.091-2.974-.061-6.008-.061-7.707 0-4.249.91-6.19 2.549-6.251 1.669-.03 1.972 1.76 2.033 4.642.03 4.066.121 6.19.03 9.316a42.572 42.572 0 016.221 0c-.061-3.065 0-5.826-.061-9.528zm22.626 1.85a88.36 88.36 0 01-4.886-.424c5.948-.728 8.375-4.4 8.193-7.768a38.306 38.306 0 01-6.463 0c.637 2.7-.516 5.705-3.49 6.524 0-4.855.061-10.196.182-12.927a20.138 20.138 0 00-6.038 0c.243 6.16.151 15.81 0 22.273a40.11 40.11 0 016.038 0c-.091-1.456-.151-4.309-.182-7.586.607.516 1.062 1.214 1.426 1.881l3.49 5.705a41.596 41.596 0 016.736 0l-5.006-7.677zm17.289 2.246l-.607.243c.091.455.121.82.121 1.426 0 2.124-.819 3.187-2.033 3.187-1.942 0-2.701-2.034-2.701-7.192v-.06h9.802l.728-.335c.061-4.794-2.428-8.162-8.102-8.162-5.492 0-8.83 3.307-8.83 8.375 0 5.037 3.277 8.405 9.012 8.405 4.066 0 7.283-1.7 7.95-5.098l-5.34-.789zm-2.671-9.892c1.396 0 1.973 1.335 1.973 3.672 0 .91-.061 1.85-.213 2.488h-4.278c.152-4.673 1.092-6.16 2.518-6.16zm14.59-2.458c2.063 0 3.186-1.183 3.186-2.61 0-1.486-1.123-2.67-3.186-2.67-2.094 0-3.217 1.184-3.217 2.67 0 1.427 1.092 2.61 3.217 2.61zM153.937 24a42.562 42.562 0 016.22 0c-.121-5.31-.121-10.56 0-15.87a42.556 42.556 0 01-6.22 0c.151 5.31.151 10.56 0 15.87zm27.363-9.528c-.061-5.007-2.398-6.797-5.705-6.797-3.065 0-5.037 1.638-5.766 4.521l-2.913-4.066h-2.579c.152 5.37.122 10.5 0 15.87a42.987 42.987 0 016.251 0c-.091-2.974-.061-6.008-.061-7.707 0-4.249.911-6.19 2.549-6.251 1.669-.03 1.973 1.76 2.033 4.642.031 4.066.122 6.19.031 9.316a42.562 42.562 0 016.22 0c-.06-3.065 0-5.826-.06-9.528zm14.459 4.096l-.607.243c.091.455.122.82.122 1.426 0 2.124-.82 3.187-2.033 3.187-1.942 0-2.701-2.034-2.701-7.192v-.06h9.801l.729-.335c.06-4.794-2.428-8.162-8.102-8.162-5.493 0-8.831 3.307-8.831 8.375 0 5.037 3.278 8.405 9.013 8.405 4.066 0 7.282-1.7 7.95-5.098l-5.341-.789zm-2.67-9.892c1.396 0 1.972 1.335 1.972 3.672 0 .91-.06 1.85-.212 2.488h-4.279c.152-4.673 1.093-6.16 2.519-6.16zM54.166 34.76a295.052 295.052 0 01-4.339 18.267c-1.548-5.189-3.702-13.108-4.855-18.267-3.004-.303-4.734-.303-7.313 0a442.4 442.4 0 012.063 5.826c-.91 3.975-2.002 8.527-3.095 12.472-1.547-5.19-3.61-13.14-4.764-18.298-3.065-.303-4.825-.303-7.465 0 2.67 7.1 4.916 14.17 7.07 21.241 2.398.303 3.885.303 6.282 0a1024.6 1024.6 0 003.61-10.438c1.124 3.49 2.216 6.948 3.308 10.438 2.367.303 4.006.303 6.373 0 2.306-7.07 5.25-15.172 7.525-21.24a10.745 10.745 0 00-4.4 0zm16.068 15.81l-.607.242c.091.455.121.82.121 1.426 0 2.124-.819 3.186-2.033 3.186-1.942 0-2.7-2.033-2.7-7.191v-.06h9.8l.73-.335c.06-4.794-2.428-8.162-8.103-8.162-5.492 0-8.83 3.307-8.83 8.375 0 5.037 3.277 8.405 9.012 8.405 4.066 0 7.283-1.7 7.95-5.098l-5.34-.789zm-2.67-9.893c1.395 0 1.972 1.335 1.972 3.672 0 .91-.06 1.85-.212 2.488h-4.279c.152-4.673 1.092-6.16 2.519-6.16zM78.876 56a42.569 42.569 0 016.22 0c-.03-3.095-.06-6.19 0-9.134 0-2.73.728-4.824 2.215-4.824 1.123 0 1.578 1.73.85 4.551l.394.122 5.28-1.396c.061-.486.122-.91.122-1.335 0-2.913-1.851-4.31-4.097-4.31-3.125 0-4.734 1.852-5.492 4.37l-2.913-3.914h-2.61c.182 5.37.182 10.5.03 15.87zm28.226.425c4.157 0 6.797-3.399 6.797-8.527 0-5.22-2.944-8.223-6.585-8.223-2.67 0-4.309 1.547-5.189 3.945.061-3.308.213-7.556.304-9.893a21.16 21.16 0 00-6.19 0c.242 6.16.333 15.78.12 22.273h2.55l2.852-3.52c.728 2.428 2.579 3.945 5.341 3.945zm-1.912-2.155c-1.73 0-2.67-2.336-2.64-6.16.03-3.792.971-5.886 2.64-5.886 1.699 0 2.427 2.336 2.427 5.826 0 4.127-.788 6.22-2.427 6.22zm28.21-14.14a42.987 42.987 0 01-6.251 0c.091 2.974.091 3.854.091 7.98 0 3.915-.971 5.887-2.579 5.918-1.214.03-1.639-1.093-1.669-4.249-.061-4.37-.091-3.944-.061-9.649a42.153 42.153 0 01-6.19 0c.061 3.095.03 5.856.061 9.74.03 4.977 2.397 6.555 5.462 6.555 2.943 0 4.946-1.79 5.644-4.46L130.851 56h2.549c-.182-5.37-.152-10.5 0-15.87zm20.993 6.342c-.061-5.007-2.397-6.797-5.705-6.797-3.065 0-5.037 1.638-5.765 4.521l-2.913-4.066h-2.58c.152 5.37.122 10.5 0 15.87a42.987 42.987 0 016.251 0c-.091-2.974-.06-6.008-.06-7.707 0-4.249.91-6.19 2.549-6.251 1.668-.03 1.972 1.76 2.033 4.642.03 4.067.121 6.19.03 9.316a42.562 42.562 0 016.22 0c-.06-3.065 0-5.826-.06-9.528zm20.65-8.345c.273-.698.364-1.79.303-2.518-1.82.151-3.034.151-4.885 0 .273.728.455 1.456.455 2.154 0 .971-.455 2.185-1.76 2.458a14.318 14.318 0 00-2.913-.303c-5.432 0-8.588 2.791-8.588 6.524 0 2.488 1.396 4.582 3.915 5.674-1.79.394-4.006 1.639-4.006 4.036 0 1.972 1.427 3.246 3.824 3.762 1.79.364 4.157.547 7.768.698 1.032.122 1.487.516 1.487 1.275 0 .394-.182.758-.698 1.062l.576.455c2.519-.455 4.491-1.881 4.491-4.006 0-2.397-2.063-3.52-4.309-3.732-1.304-.121-4.855-.303-6.857-.455-1.305-.152-2.276-.364-2.276-1.214 0-.576.394-1.123 1.001-1.517 1.062.334 2.306.516 3.672.516 5.401 0 8.557-2.792 8.557-6.554 0-2.61-1.517-4.734-4.279-5.796 1.791-.182 3.854-1.002 4.522-2.519zm-8.8 13.807c-1.305 0-2.246-1.092-2.246-5.462 0-4.34.941-5.492 2.246-5.492 1.396 0 2.215 1.183 2.215 5.431 0 4.4-.88 5.523-2.215 5.523z" fill="#fff"/></svg>