<svg width="14" height="14" viewBox="0 0 14 14" fill="none" xmlns="http://www.w3.org/2000/svg">
<path d="M13.3635 0H8.27261C7.92117 0 7.63624 0.284922 7.63624 0.636371C7.63624 0.98782 7.92117 1.27274 8.27261 1.27274H11.8272L5.27722 7.82277C5.02869 8.0713 5.02869 8.47418 5.27722 8.72271C5.40144 8.84696 5.5643 8.90909 5.72716 8.90909C5.89002 8.90909 6.0529 8.84699 6.17715 8.72268L12.7272 2.17268V5.72729C12.7272 6.07873 13.0121 6.36366 13.3636 6.36366C13.715 6.36366 13.9999 6.07873 13.9999 5.72729V0.636371C13.9999 0.284922 13.715 0 13.3635 0Z" fill="white"/>
<path d="M10.8182 6.36364C10.4667 6.36364 10.1818 6.64856 10.1818 7.00001V12.7273H1.27271V3.81819H7C7.35145 3.81819 7.63637 3.53326 7.63637 3.18181C7.63637 2.83037 7.35145 2.54547 7 2.54547H0.636371C0.284922 2.54547 0 2.83039 0 3.18184V13.3637C0 13.7151 0.284922 14 0.636371 14H10.8182C11.1696 14 11.4546 13.7151 11.4546 13.3636V7.00001C11.4545 6.64856 11.1696 6.36364 10.8182 6.36364Z" fill="white"/>
</svg>
