<svg width="20" height="20" viewBox="0 0 20 20" fill="none" xmlns="http://www.w3.org/2000/svg">
<path d="M7.31598 14.5505V18.3823C7.31598 18.6499 7.48782 18.8871 7.74228 18.9713C7.8059 18.992 7.87116 19.0019 7.9356 19.0019C8.12893 19.0019 8.31564 18.911 8.43461 18.7491L10.676 15.6989L7.31598 14.5505Z" fill="white"/>
<path d="M19.6548 0.11491C19.4647 -0.0197548 19.2152 -0.0379304 19.0087 0.0702973L0.419957 9.77775C0.200197 9.89259 0.0704885 10.1272 0.0886642 10.3742C0.107666 10.6221 0.272073 10.8336 0.505878 10.9137L5.67355 12.6801L16.6789 3.27004L8.16279 13.5302L16.8235 16.4903C16.8879 16.5118 16.9557 16.5234 17.0234 16.5234C17.1358 16.5234 17.2473 16.4928 17.3456 16.4333C17.5026 16.3375 17.6092 16.1764 17.6364 15.9955L19.9084 0.711402C19.9423 0.480076 19.8448 0.250402 19.6548 0.11491Z" fill="white"/>
</svg>
